<?xml version="1.0" encoding="utf-8"?>
<svg version="1.1" xmlns:xlink="http://www.w3.org/1999/xlink" width="121px" height="35px" xmlns="http://www.w3.org/2000/svg">
  <defs>
    <mask fill="white" id="clip1051">
      <path d="M 0 28.75  L 0 6.25  C 0 2.75000000000006  2.66199999999978 0  6.05 0  L 114.95 0  C 118.338 0  121 2.75000000000006  121 6.25  L 121 28.75  C 121 32.2499999999999  118.338 35  114.95 35  L 48.6180180180176 35  L 6.05 35  C 2.66199999999978 35  0 32.2499999999999  0 28.75  Z " fill-rule="evenodd" />
    </mask>
  </defs>
  <g transform="matrix(1 0 0 1 -971 -566 )">
    <path d="M 0 28.75  L 0 6.25  C 0 2.75000000000006  2.66199999999978 0  6.05 0  L 114.95 0  C 118.338 0  121 2.75000000000006  121 6.25  L 121 28.75  C 121 32.2499999999999  118.338 35  114.95 35  L 48.6180180180176 35  L 6.05 35  C 2.66199999999978 35  0 32.2499999999999  0 28.75  Z " fill-rule="nonzero" fill="#95f204" stroke="none" transform="matrix(1 0 0 1 971 566 )" />
    <path d="M 0 28.75  L 0 6.25  C 0 2.75000000000006  2.66199999999978 0  6.05 0  L 114.95 0  C 118.338 0  121 2.75000000000006  121 6.25  L 121 28.75  C 121 32.2499999999999  118.338 35  114.95 35  L 48.6180180180176 35  L 6.05 35  C 2.66199999999978 35  0 32.2499999999999  0 28.75  Z " stroke-width="2" stroke="#797979" fill="none" transform="matrix(1 0 0 1 971 566 )" mask="url(#clip1051)" />
  </g>
</svg>