<?xml version="1.0" encoding="utf-8"?>
<svg version="1.1" xmlns:xlink="http://www.w3.org/1999/xlink" width="141px" height="45px" xmlns="http://www.w3.org/2000/svg">
  <defs>
    <mask fill="white" id="clip1027">
      <path d="M 0 36.9642857142857  L 0 8.03571428571429  C 0 3.53571428571436  3.10199999999974 0  7.05 0  L 133.95 0  C 137.898 0  141 3.53571428571436  141 8.03571428571429  L 141 36.9642857142857  C 141 41.4642857142856  137.898 45  133.95 45  L 56.6540540540536 45  L 7.05 45  C 3.10199999999974 45  0 41.4642857142856  0 36.9642857142857  Z " fill-rule="evenodd" />
    </mask>
  </defs>
  <g transform="matrix(1 0 0 1 -157 -172 )">
    <path d="M 0 36.9642857142857  L 0 8.03571428571429  C 0 3.53571428571436  3.10199999999974 0  7.05 0  L 133.95 0  C 137.898 0  141 3.53571428571436  141 8.03571428571429  L 141 36.9642857142857  C 141 41.4642857142856  137.898 45  133.95 45  L 56.6540540540536 45  L 7.05 45  C 3.10199999999974 45  0 41.4642857142856  0 36.9642857142857  Z " fill-rule="nonzero" fill="#f59a23" stroke="none" transform="matrix(1 0 0 1 157 172 )" />
    <path d="M 0 36.9642857142857  L 0 8.03571428571429  C 0 3.53571428571436  3.10199999999974 0  7.05 0  L 133.95 0  C 137.898 0  141 3.53571428571436  141 8.03571428571429  L 141 36.9642857142857  C 141 41.4642857142856  137.898 45  133.95 45  L 56.6540540540536 45  L 7.05 45  C 3.10199999999974 45  0 41.4642857142856  0 36.9642857142857  Z " stroke-width="2" stroke="#797979" fill="none" transform="matrix(1 0 0 1 157 172 )" mask="url(#clip1027)" />
  </g>
</svg>