<?xml version="1.0" encoding="utf-8"?>
<svg version="1.1" xmlns:xlink="http://www.w3.org/1999/xlink" width="148px" height="37px" xmlns="http://www.w3.org/2000/svg">
  <defs>
    <mask fill="white" id="clip1029">
      <path d="M 0 30.3928571428571  L 0 6.60714285714286  C 0 2.90714285714292  3.25599999999973 0  7.4 0  L 140.6 0  C 144.744 0  148 2.90714285714292  148 6.60714285714286  L 148 30.3928571428571  C 148 34.0928571428571  144.744 37  140.6 37  L 59.4666666666662 37  L 7.4 37  C 3.25599999999973 37  0 34.0928571428571  0 30.3928571428571  Z " fill-rule="evenodd" />
    </mask>
  </defs>
  <g transform="matrix(1 0 0 1 -158 -172 )">
    <path d="M 0 30.3928571428571  L 0 6.60714285714286  C 0 2.90714285714292  3.25599999999973 0  7.4 0  L 140.6 0  C 144.744 0  148 2.90714285714292  148 6.60714285714286  L 148 30.3928571428571  C 148 34.0928571428571  144.744 37  140.6 37  L 59.4666666666662 37  L 7.4 37  C 3.25599999999973 37  0 34.0928571428571  0 30.3928571428571  Z " fill-rule="nonzero" fill="#facd91" stroke="none" transform="matrix(1 0 0 1 158 172 )" />
    <path d="M 0 30.3928571428571  L 0 6.60714285714286  C 0 2.90714285714292  3.25599999999973 0  7.4 0  L 140.6 0  C 144.744 0  148 2.90714285714292  148 6.60714285714286  L 148 30.3928571428571  C 148 34.0928571428571  144.744 37  140.6 37  L 59.4666666666662 37  L 7.4 37  C 3.25599999999973 37  0 34.0928571428571  0 30.3928571428571  Z " stroke-width="2" stroke="#797979" fill="none" transform="matrix(1 0 0 1 158 172 )" mask="url(#clip1029)" />
  </g>
</svg>