<?xml version="1.0" encoding="utf-8"?>
<svg version="1.1" xmlns:xlink="http://www.w3.org/1999/xlink" width="106px" height="34px" xmlns="http://www.w3.org/2000/svg">
  <defs>
    <mask fill="white" id="clip1030">
      <path d="M 0 27.9285714285714  L 0 6.07142857142857  C 0 2.67142857142863  2.33199999999981 0  5.3 0  L 100.7 0  C 103.668 0  106 2.67142857142863  106 6.07142857142857  L 106 27.9285714285714  C 106 31.3285714285714  103.668 34  100.7 34  L 42.5909909909906 34  L 5.3 34  C 2.33199999999981 34  0 31.3285714285714  0 27.9285714285714  Z " fill-rule="evenodd" />
    </mask>
  </defs>
  <g transform="matrix(1 0 0 1 -1776 -178 )">
    <path d="M 0 27.9285714285714  L 0 6.07142857142857  C 0 2.67142857142863  2.33199999999981 0  5.3 0  L 100.7 0  C 103.668 0  106 2.67142857142863  106 6.07142857142857  L 106 27.9285714285714  C 106 31.3285714285714  103.668 34  100.7 34  L 42.5909909909906 34  L 5.3 34  C 2.33199999999981 34  0 31.3285714285714  0 27.9285714285714  Z " fill-rule="nonzero" fill="#02a7f0" stroke="none" transform="matrix(1 0 0 1 1776 178 )" />
    <path d="M 0 27.9285714285714  L 0 6.07142857142857  C 0 2.67142857142863  2.33199999999981 0  5.3 0  L 100.7 0  C 103.668 0  106 2.67142857142863  106 6.07142857142857  L 106 27.9285714285714  C 106 31.3285714285714  103.668 34  100.7 34  L 42.5909909909906 34  L 5.3 34  C 2.33199999999981 34  0 31.3285714285714  0 27.9285714285714  Z " stroke-width="2" stroke="#797979" fill="none" transform="matrix(1 0 0 1 1776 178 )" mask="url(#clip1030)" />
  </g>
</svg>