<?xml version="1.0" encoding="utf-8"?>
<svg version="1.1" xmlns:xlink="http://www.w3.org/1999/xlink" width="111px" height="28px" xmlns="http://www.w3.org/2000/svg">
  <defs>
    <mask fill="white" id="clip1031">
      <path d="M 0 23  L 0 5  C 0 2.20000000000005  2.4419999999998 0  5.55 0  L 105.45 0  C 108.558 0  111 2.20000000000005  111 5  L 111 23  C 111 25.8  108.558 28  105.45 28  L 44.5999999999996 28  L 5.55 28  C 2.4419999999998 28  0 25.8  0 23  Z " fill-rule="evenodd" />
    </mask>
  </defs>
  <g transform="matrix(1 0 0 1 -1552 -95 )">
    <path d="M 0 23  L 0 5  C 0 2.20000000000005  2.4419999999998 0  5.55 0  L 105.45 0  C 108.558 0  111 2.20000000000005  111 5  L 111 23  C 111 25.8  108.558 28  105.45 28  L 44.5999999999996 28  L 5.55 28  C 2.4419999999998 28  0 25.8  0 23  Z " fill-rule="nonzero" fill="#02a7f0" stroke="none" transform="matrix(1 0 0 1 1552 95 )" />
    <path d="M 0 23  L 0 5  C 0 2.20000000000005  2.4419999999998 0  5.55 0  L 105.45 0  C 108.558 0  111 2.20000000000005  111 5  L 111 23  C 111 25.8  108.558 28  105.45 28  L 44.5999999999996 28  L 5.55 28  C 2.4419999999998 28  0 25.8  0 23  Z " stroke-width="2" stroke="#797979" fill="none" transform="matrix(1 0 0 1 1552 95 )" mask="url(#clip1031)" />
  </g>
</svg>