<?xml version="1.0" encoding="utf-8"?>
<svg version="1.1" xmlns:xlink="http://www.w3.org/1999/xlink" width="112px" height="26px" xmlns="http://www.w3.org/2000/svg">
  <defs>
    <mask fill="white" id="clip1032">
      <path d="M 0 22.1764705882353  L 0 3.82352941176471  C 0 1.68235294117651  1.65369127516765 0  3.75838926174497 0  L 108.241610738255 0  C 109.52006906723 0  110.632118481887 0.620741375588442  111.30820726015 1.58800055236295  C 111.7451486512 2.21311900395333  112 2.98296942396195  112 3.82352941176471  L 112 22.1764705882353  C 112 24.3176470588235  110.346308724832 26  108.241610738255 26  L 3.75838926174497 26  C 1.65369127516765 26  0 24.3176470588235  0 22.1764705882353  Z " fill-rule="evenodd" />
    </mask>
  </defs>
  <g transform="matrix(1 0 0 1 -1603 -1033 )">
    <path d="M 0 22.1764705882353  L 0 3.82352941176471  C 0 1.68235294117651  1.65369127516765 0  3.75838926174497 0  L 108.241610738255 0  C 109.52006906723 0  110.632118481887 0.620741375588442  111.30820726015 1.58800055236295  C 111.7451486512 2.21311900395333  112 2.98296942396195  112 3.82352941176471  L 112 22.1764705882353  C 112 24.3176470588235  110.346308724832 26  108.241610738255 26  L 3.75838926174497 26  C 1.65369127516765 26  0 24.3176470588235  0 22.1764705882353  Z " fill-rule="nonzero" fill="#02a7f0" stroke="none" transform="matrix(1 0 0 1 1603 1033 )" />
    <path d="M 0 22.1764705882353  L 0 3.82352941176471  C 0 1.68235294117651  1.65369127516765 0  3.75838926174497 0  L 108.241610738255 0  C 109.52006906723 0  110.632118481887 0.620741375588442  111.30820726015 1.58800055236295  C 111.7451486512 2.21311900395333  112 2.98296942396195  112 3.82352941176471  L 112 22.1764705882353  C 112 24.3176470588235  110.346308724832 26  108.241610738255 26  L 3.75838926174497 26  C 1.65369127516765 26  0 24.3176470588235  0 22.1764705882353  Z " stroke-width="2" stroke="#797979" fill="none" transform="matrix(1 0 0 1 1603 1033 )" mask="url(#clip1032)" />
  </g>
</svg>