<?xml version="1.0" encoding="utf-8"?>
<svg version="1.1" xmlns:xlink="http://www.w3.org/1999/xlink" width="112px" height="26px" xmlns="http://www.w3.org/2000/svg">
  <defs>
    <mask fill="white" id="clip1033">
      <path d="M 0 21.3571428571429  L 0 4.64285714285714  C 0 2.04285714285718  2.4639999999998 0  5.6 0  L 106.4 0  C 109.536 0  112 2.04285714285718  112 4.64285714285714  L 112 21.3571428571429  C 112 23.9571428571428  109.536 26  106.4 26  L 45.0018018018014 26  L 5.6 26  C 2.4639999999998 26  0 23.9571428571428  0 21.3571428571429  Z " fill-rule="evenodd" />
    </mask>
  </defs>
  <g transform="matrix(1 0 0 1 -1719 -1089 )">
    <path d="M 0 21.3571428571429  L 0 4.64285714285714  C 0 2.04285714285718  2.4639999999998 0  5.6 0  L 106.4 0  C 109.536 0  112 2.04285714285718  112 4.64285714285714  L 112 21.3571428571429  C 112 23.9571428571428  109.536 26  106.4 26  L 45.0018018018014 26  L 5.6 26  C 2.4639999999998 26  0 23.9571428571428  0 21.3571428571429  Z " fill-rule="nonzero" fill="#02a7f0" stroke="none" transform="matrix(1 0 0 1 1719 1089 )" />
    <path d="M 0 21.3571428571429  L 0 4.64285714285714  C 0 2.04285714285718  2.4639999999998 0  5.6 0  L 106.4 0  C 109.536 0  112 2.04285714285718  112 4.64285714285714  L 112 21.3571428571429  C 112 23.9571428571428  109.536 26  106.4 26  L 45.0018018018014 26  L 5.6 26  C 2.4639999999998 26  0 23.9571428571428  0 21.3571428571429  Z " stroke-width="2" stroke="#797979" fill="none" transform="matrix(1 0 0 1 1719 1089 )" mask="url(#clip1033)" />
  </g>
</svg>