<?xml version="1.0" encoding="utf-8"?>
<svg version="1.1" xmlns:xlink="http://www.w3.org/1999/xlink" width="119px" height="32px" xmlns="http://www.w3.org/2000/svg">
  <defs>
    <mask fill="white" id="clip1048">
      <path d="M 0 26.2857142857143  L 0 5.71428571428571  C 0 2.51428571428577  2.61799999999978 0  5.95 0  L 113.05 0  C 116.382 0  119 2.51428571428577  119 5.71428571428571  L 119 26.2857142857143  C 119 29.4857142857142  116.382 32  113.05 32  L 47.814414414414 32  L 5.95 32  C 2.61799999999978 32  0 29.4857142857142  0 26.2857142857143  Z " fill-rule="evenodd" />
    </mask>
  </defs>
  <g transform="matrix(1 0 0 1 -1225 -559 )">
    <path d="M 0 26.2857142857143  L 0 5.71428571428571  C 0 2.51428571428577  2.61799999999978 0  5.95 0  L 113.05 0  C 116.382 0  119 2.51428571428577  119 5.71428571428571  L 119 26.2857142857143  C 119 29.4857142857142  116.382 32  113.05 32  L 47.814414414414 32  L 5.95 32  C 2.61799999999978 32  0 29.4857142857142  0 26.2857142857143  Z " fill-rule="nonzero" fill="#02a7f0" stroke="none" transform="matrix(1 0 0 1 1225 559 )" />
    <path d="M 0 26.2857142857143  L 0 5.71428571428571  C 0 2.51428571428577  2.61799999999978 0  5.95 0  L 113.05 0  C 116.382 0  119 2.51428571428577  119 5.71428571428571  L 119 26.2857142857143  C 119 29.4857142857142  116.382 32  113.05 32  L 47.814414414414 32  L 5.95 32  C 2.61799999999978 32  0 29.4857142857142  0 26.2857142857143  Z " stroke-width="2" stroke="#797979" fill="none" transform="matrix(1 0 0 1 1225 559 )" mask="url(#clip1048)" />
  </g>
</svg>