<?xml version="1.0" encoding="utf-8"?>
<svg version="1.1" xmlns:xlink="http://www.w3.org/1999/xlink" width="234px" height="40px" xmlns="http://www.w3.org/2000/svg">
  <defs>
    <mask fill="white" id="clip1049">
      <path d="M 0 32.8571428571429  L 0 7.14285714285714  C 0 3.14285714285721  5.14799999999957 0  11.7 0  L 222.3 0  C 228.852 0  234 3.14285714285721  234 7.14285714285714  L 234 32.8571428571429  C 234 36.8571428571428  228.852 40  222.3 40  L 94.0216216216208 40  L 11.7 40  C 5.14799999999957 40  0 36.8571428571428  0 32.8571428571429  Z " fill-rule="evenodd" />
    </mask>
  </defs>
  <g transform="matrix(1 0 0 1 -1098 -812 )">
    <path d="M 0 32.8571428571429  L 0 7.14285714285714  C 0 3.14285714285721  5.14799999999957 0  11.7 0  L 222.3 0  C 228.852 0  234 3.14285714285721  234 7.14285714285714  L 234 32.8571428571429  C 234 36.8571428571428  228.852 40  222.3 40  L 94.0216216216208 40  L 11.7 40  C 5.14799999999957 40  0 36.8571428571428  0 32.8571428571429  Z " fill-rule="nonzero" fill="#02a7f0" stroke="none" transform="matrix(1 0 0 1 1098 812 )" />
    <path d="M 0 32.8571428571429  L 0 7.14285714285714  C 0 3.14285714285721  5.14799999999957 0  11.7 0  L 222.3 0  C 228.852 0  234 3.14285714285721  234 7.14285714285714  L 234 32.8571428571429  C 234 36.8571428571428  228.852 40  222.3 40  L 94.0216216216208 40  L 11.7 40  C 5.14799999999957 40  0 36.8571428571428  0 32.8571428571429  Z " stroke-width="2" stroke="#797979" fill="none" transform="matrix(1 0 0 1 1098 812 )" mask="url(#clip1049)" />
  </g>
</svg>