<?xml version="1.0" encoding="utf-8"?>
<svg version="1.1" xmlns:xlink="http://www.w3.org/1999/xlink" width="306px" height="40px" xmlns="http://www.w3.org/2000/svg">
  <defs>
    <mask fill="white" id="clip1061">
      <path d="M 0 26.25  L 0 3.75  C 0 1.65000000000003  1.32897959183676 0  3.02040816326531 0  L 292.979591836735 0  C 294.671020408163 0  296 1.65000000000003  296 3.75  L 296 26.25  C 296 28.35  294.671020408163 30  292.979591836735 30  L 3.02040816326531 30  C 1.32897959183676 30  0 28.35  0 26.25  Z " fill-rule="evenodd" />
    </mask>
    <filter x="1474px" y="985px" width="306px" height="40px" filterUnits="userSpaceOnUse" id="filter1062">
      <feOffset dx="5" dy="5" in="SourceAlpha" result="shadowOffsetInner" />
      <feGaussianBlur stdDeviation="2.5" in="shadowOffsetInner" result="shadowGaussian" />
      <feComposite in2="shadowGaussian" operator="atop" in="SourceAlpha" result="shadowComposite" />
      <feColorMatrix type="matrix" values="0 0 0 0 0  0 0 0 0 0  0 0 0 0 0  0 0 0 0.349019607843137 0  " in="shadowComposite" />
    </filter>
    <g id="widget1063">
      <path d="M 0 26.25  L 0 3.75  C 0 1.65000000000003  1.32897959183676 0  3.02040816326531 0  L 292.979591836735 0  C 294.671020408163 0  296 1.65000000000003  296 3.75  L 296 26.25  C 296 28.35  294.671020408163 30  292.979591836735 30  L 3.02040816326531 30  C 1.32897959183676 30  0 28.35  0 26.25  Z " fill-rule="nonzero" fill="#ffffff" stroke="none" transform="matrix(1 0 0 1 1474 985 )" />
      <path d="M 0 26.25  L 0 3.75  C 0 1.65000000000003  1.32897959183676 0  3.02040816326531 0  L 292.979591836735 0  C 294.671020408163 0  296 1.65000000000003  296 3.75  L 296 26.25  C 296 28.35  294.671020408163 30  292.979591836735 30  L 3.02040816326531 30  C 1.32897959183676 30  0 28.35  0 26.25  Z " stroke-width="2" stroke="#7f7f7f" fill="none" transform="matrix(1 0 0 1 1474 985 )" mask="url(#clip1061)" />
    </g>
  </defs>
  <g transform="matrix(1 0 0 1 -1474 -985 )">
    <use xlink:href="#widget1063" filter="url(#filter1062)" />
    <use xlink:href="#widget1063" />
  </g>
</svg>